<?xml version="1.0" standalone="no"?>
<!DOCTYPE svg PUBLIC "-//W3C//DTD SVG 20010904//EN"
 "http://www.w3.org/TR/2001/REC-SVG-20010904/DTD/svg10.dtd">
<svg version="1.0" xmlns="http://www.w3.org/2000/svg"
 width="512.000000pt" height="512.000000pt" viewBox="0 0 512.000000 512.000000"
 preserveAspectRatio="xMidYMid meet">

<g transform="translate(0.000000,512.000000) scale(0.100000,-0.100000)"
fill="#000000" stroke="none">
<path d="M1435 4610 c-220 -13 -354 -47 -487 -124 -155 -88 -259 -200 -339
-361 -59 -121 -85 -231 -99 -422 -13 -179 -13 -2160 0 -2315 18 -221 58 -351
149 -491 82 -124 196 -224 336 -294 158 -79 254 -94 673 -100 l342 -5 0 204
c0 113 -2 207 -5 210 -3 3 -27 1 -52 -4 -32 -7 -90 -6 -192 3 -80 8 -161 13
-179 12 -19 -2 -30 2 -27 7 3 5 0 7 -8 4 -24 -9 -136 54 -194 108 -42 40 -66
77 -113 173 -74 148 -134 225 -225 288 -76 51 -95 71 -95 98 0 47 137 50 235
5 61 -28 163 -119 197 -175 77 -130 168 -208 281 -243 85 -25 206 -21 309 11
58 19 69 26 74 49 26 114 54 179 104 235 16 19 30 37 30 40 0 2 -27 7 -60 11
-81 9 -274 59 -368 96 -229 88 -399 248 -487 459 -64 153 -95 322 -95 517 0
230 50 390 171 550 l51 68 -16 69 c-36 150 -28 325 22 469 l19 53 79 -1 c120
0 256 -52 459 -174 l80 -49 80 19 c288 67 669 67 949 1 l85 -20 83 51 c180
111 357 178 474 178 l61 0 21 -67 c12 -38 26 -96 33 -131 15 -80 6 -269 -16
-341 -16 -53 -16 -55 4 -80 49 -60 115 -167 138 -224 51 -126 65 -202 65 -357
0 -241 -32 -402 -117 -575 -82 -169 -203 -289 -380 -377 -109 -55 -321 -116
-458 -133 l-55 -7 34 -46 c46 -60 69 -105 91 -183 16 -57 18 -106 18 -432 l0
-367 271 0 c303 0 446 11 580 45 279 71 503 280 593 555 55 166 55 158 59
1335 4 1399 0 1472 -107 1690 -132 269 -365 428 -696 476 -95 14 -2172 21
-2380 9z m232 -3706 c-3 -3 -12 -4 -19 -1 -8 3 -5 6 6 6 11 1 17 -2 13 -5z"/>
<path d="M2073 535 c-3 -9 -3 -18 -1 -21 7 -7 979 -6 986 1 3 3 -2 13 -11 22
-15 16 -20 16 -50 3 -51 -22 -767 -27 -842 -6 -66 20 -74 20 -82 1z"/>
</g>
</svg>
