<?xml version="1.0" standalone="no"?>
<!DOCTYPE svg PUBLIC "-//W3C//DTD SVG 20010904//EN"
 "http://www.w3.org/TR/2001/REC-SVG-20010904/DTD/svg10.dtd">
<svg version="1.0" xmlns="http://www.w3.org/2000/svg"
 width="512.000000pt" height="512.000000pt" viewBox="0 0 512.000000 512.000000"
 preserveAspectRatio="xMidYMid meet">

<g transform="translate(0.000000,512.000000) scale(0.100000,-0.100000)"
fill="#000000" stroke="none">
<path d="M468 5110 c-207 -35 -378 -185 -441 -385 l-22 -70 0 -2095 0 -2095
22 -70 c54 -173 195 -314 368 -368 l70 -22 2095 0 2095 0 70 22 c173 54 314
195 368 368 l22 70 0 2095 0 2095 -22 70 c-53 170 -191 309 -362 368 l-66 22
-2075 1 c-1141 1 -2096 -2 -2122 -6z m1089 -1061 c111 -53 186 -160 202 -289
16 -124 -18 -221 -109 -311 -79 -77 -149 -103 -263 -97 -66 4 -95 11 -147 36
-81 39 -113 68 -155 138 -87 145 -61 341 61 454 118 108 273 135 411 69z
m2013 -954 c265 -61 404 -209 479 -510 39 -158 41 -208 41 -884 l0 -661 -317
0 -318 0 -3 573 c-2 314 -7 599 -11 632 -31 217 -110 304 -285 313 -143 7
-262 -39 -321 -126 -71 -104 -85 -223 -85 -707 0 -209 -3 -451 -7 -537 l-6
-158 -307 0 -308 0 -7 243 c-8 257 -3 1782 5 1791 3 2 139 6 303 8 l297 3 0
-142 c0 -89 4 -143 10 -143 6 0 10 5 10 12 0 14 91 120 139 163 73 64 191 119
306 141 90 17 286 12 385 -11z m-1992 -32 l142 -6 0 -961 c0 -529 -3 -985 -6
-1014 l-7 -52 -308 0 -309 0 0 1020 0 1020 173 0 c94 0 236 -3 315 -7z"/>
</g>
</svg>
